<mxfile host="app.diagrams.net" modified="2023-07-01T15:56:29.725Z" agent="Mozilla/5.0 (Windows NT 10.0; Win64; x64) AppleWebKit/537.36 (KHTML, like Gecko) Chrome/114.0.0.0 Safari/537.36" etag="OM0g2hGHq5mmMBvxpkN3" version="21.4.0" type="device">
  <diagram name="Page-1" id="9OY0cTvItTC0gXzUUUH9">
    <mxGraphModel dx="1843" dy="830" grid="1" gridSize="10" guides="1" tooltips="1" connect="1" arrows="1" fold="1" page="1" pageScale="1" pageWidth="850" pageHeight="1100" math="0" shadow="0">
      <root>
        <mxCell id="0" />
        <mxCell id="1" parent="0" />
        <mxCell id="Xuasf2RnD_irKJMYZK4A-1" value="" style="swimlane;startSize=0;" vertex="1" parent="1">
          <mxGeometry x="50" y="40" width="780" height="490" as="geometry" />
        </mxCell>
        <mxCell id="ZqUaIY_BHLRDGgIN503c-19" value="penyewaans" style="swimlane;fontStyle=0;childLayout=stackLayout;horizontal=1;startSize=30;horizontalStack=0;resizeParent=1;resizeParentMax=0;resizeLast=0;collapsible=1;marginBottom=0;whiteSpace=wrap;html=1;" parent="Xuasf2RnD_irKJMYZK4A-1" vertex="1">
          <mxGeometry x="70" y="120" width="140" height="270" as="geometry" />
        </mxCell>
        <mxCell id="ZqUaIY_BHLRDGgIN503c-20" value="id" style="text;strokeColor=none;fillColor=none;align=left;verticalAlign=middle;spacingLeft=4;spacingRight=4;overflow=hidden;points=[[0,0.5],[1,0.5]];portConstraint=eastwest;rotatable=0;whiteSpace=wrap;html=1;" parent="ZqUaIY_BHLRDGgIN503c-19" vertex="1">
          <mxGeometry y="30" width="140" height="30" as="geometry" />
        </mxCell>
        <mxCell id="ZqUaIY_BHLRDGgIN503c-26" value="reklame_id" style="text;strokeColor=none;fillColor=none;align=left;verticalAlign=middle;spacingLeft=4;spacingRight=4;overflow=hidden;points=[[0,0.5],[1,0.5]];portConstraint=eastwest;rotatable=0;whiteSpace=wrap;html=1;" parent="ZqUaIY_BHLRDGgIN503c-19" vertex="1">
          <mxGeometry y="60" width="140" height="30" as="geometry" />
        </mxCell>
        <mxCell id="ZqUaIY_BHLRDGgIN503c-21" value="nama" style="text;strokeColor=none;fillColor=none;align=left;verticalAlign=middle;spacingLeft=4;spacingRight=4;overflow=hidden;points=[[0,0.5],[1,0.5]];portConstraint=eastwest;rotatable=0;whiteSpace=wrap;html=1;" parent="ZqUaIY_BHLRDGgIN503c-19" vertex="1">
          <mxGeometry y="90" width="140" height="30" as="geometry" />
        </mxCell>
        <mxCell id="ZqUaIY_BHLRDGgIN503c-22" value="perusahaan" style="text;strokeColor=none;fillColor=none;align=left;verticalAlign=middle;spacingLeft=4;spacingRight=4;overflow=hidden;points=[[0,0.5],[1,0.5]];portConstraint=eastwest;rotatable=0;whiteSpace=wrap;html=1;" parent="ZqUaIY_BHLRDGgIN503c-19" vertex="1">
          <mxGeometry y="120" width="140" height="30" as="geometry" />
        </mxCell>
        <mxCell id="ZqUaIY_BHLRDGgIN503c-25" value="jenis" style="text;strokeColor=none;fillColor=none;align=left;verticalAlign=middle;spacingLeft=4;spacingRight=4;overflow=hidden;points=[[0,0.5],[1,0.5]];portConstraint=eastwest;rotatable=0;whiteSpace=wrap;html=1;" parent="ZqUaIY_BHLRDGgIN503c-19" vertex="1">
          <mxGeometry y="150" width="140" height="30" as="geometry" />
        </mxCell>
        <mxCell id="ZqUaIY_BHLRDGgIN503c-23" value="tgl_pasang" style="text;strokeColor=none;fillColor=none;align=left;verticalAlign=middle;spacingLeft=4;spacingRight=4;overflow=hidden;points=[[0,0.5],[1,0.5]];portConstraint=eastwest;rotatable=0;whiteSpace=wrap;html=1;" parent="ZqUaIY_BHLRDGgIN503c-19" vertex="1">
          <mxGeometry y="180" width="140" height="30" as="geometry" />
        </mxCell>
        <mxCell id="ZqUaIY_BHLRDGgIN503c-24" value="tgl_jatuh_tempo" style="text;strokeColor=none;fillColor=none;align=left;verticalAlign=middle;spacingLeft=4;spacingRight=4;overflow=hidden;points=[[0,0.5],[1,0.5]];portConstraint=eastwest;rotatable=0;whiteSpace=wrap;html=1;" parent="ZqUaIY_BHLRDGgIN503c-19" vertex="1">
          <mxGeometry y="210" width="140" height="30" as="geometry" />
        </mxCell>
        <mxCell id="Xuasf2RnD_irKJMYZK4A-4" value="total_harga" style="text;strokeColor=none;fillColor=none;align=left;verticalAlign=middle;spacingLeft=4;spacingRight=4;overflow=hidden;points=[[0,0.5],[1,0.5]];portConstraint=eastwest;rotatable=0;whiteSpace=wrap;html=1;" vertex="1" parent="ZqUaIY_BHLRDGgIN503c-19">
          <mxGeometry y="240" width="140" height="30" as="geometry" />
        </mxCell>
        <mxCell id="ZqUaIY_BHLRDGgIN503c-1" value="reklames" style="swimlane;fontStyle=0;childLayout=stackLayout;horizontal=1;startSize=30;horizontalStack=0;resizeParent=1;resizeParentMax=0;resizeLast=0;collapsible=1;marginBottom=0;whiteSpace=wrap;html=1;" parent="Xuasf2RnD_irKJMYZK4A-1" vertex="1">
          <mxGeometry x="320" y="80" width="140" height="330" as="geometry" />
        </mxCell>
        <mxCell id="ZqUaIY_BHLRDGgIN503c-2" value="id" style="text;strokeColor=none;fillColor=none;align=left;verticalAlign=middle;spacingLeft=4;spacingRight=4;overflow=hidden;points=[[0,0.5],[1,0.5]];portConstraint=eastwest;rotatable=0;whiteSpace=wrap;html=1;" parent="ZqUaIY_BHLRDGgIN503c-1" vertex="1">
          <mxGeometry y="30" width="140" height="30" as="geometry" />
        </mxCell>
        <mxCell id="ZqUaIY_BHLRDGgIN503c-3" value="nama" style="text;strokeColor=none;fillColor=none;align=left;verticalAlign=middle;spacingLeft=4;spacingRight=4;overflow=hidden;points=[[0,0.5],[1,0.5]];portConstraint=eastwest;rotatable=0;whiteSpace=wrap;html=1;" parent="ZqUaIY_BHLRDGgIN503c-1" vertex="1">
          <mxGeometry y="60" width="140" height="30" as="geometry" />
        </mxCell>
        <mxCell id="ZqUaIY_BHLRDGgIN503c-5" value="harga" style="text;strokeColor=none;fillColor=none;align=left;verticalAlign=middle;spacingLeft=4;spacingRight=4;overflow=hidden;points=[[0,0.5],[1,0.5]];portConstraint=eastwest;rotatable=0;whiteSpace=wrap;html=1;" parent="ZqUaIY_BHLRDGgIN503c-1" vertex="1">
          <mxGeometry y="90" width="140" height="30" as="geometry" />
        </mxCell>
        <mxCell id="ZqUaIY_BHLRDGgIN503c-8" value="tinggi" style="text;strokeColor=none;fillColor=none;align=left;verticalAlign=middle;spacingLeft=4;spacingRight=4;overflow=hidden;points=[[0,0.5],[1,0.5]];portConstraint=eastwest;rotatable=0;whiteSpace=wrap;html=1;" parent="ZqUaIY_BHLRDGgIN503c-1" vertex="1">
          <mxGeometry y="120" width="140" height="30" as="geometry" />
        </mxCell>
        <mxCell id="ZqUaIY_BHLRDGgIN503c-7" value="luas" style="text;strokeColor=none;fillColor=none;align=left;verticalAlign=middle;spacingLeft=4;spacingRight=4;overflow=hidden;points=[[0,0.5],[1,0.5]];portConstraint=eastwest;rotatable=0;whiteSpace=wrap;html=1;" parent="ZqUaIY_BHLRDGgIN503c-1" vertex="1">
          <mxGeometry y="150" width="140" height="30" as="geometry" />
        </mxCell>
        <mxCell id="Xuasf2RnD_irKJMYZK4A-14" value="jalan" style="text;strokeColor=none;fillColor=none;align=left;verticalAlign=middle;spacingLeft=4;spacingRight=4;overflow=hidden;points=[[0,0.5],[1,0.5]];portConstraint=eastwest;rotatable=0;whiteSpace=wrap;html=1;" vertex="1" parent="ZqUaIY_BHLRDGgIN503c-1">
          <mxGeometry y="180" width="140" height="30" as="geometry" />
        </mxCell>
        <mxCell id="ZqUaIY_BHLRDGgIN503c-10" value="latitude" style="text;strokeColor=none;fillColor=none;align=left;verticalAlign=middle;spacingLeft=4;spacingRight=4;overflow=hidden;points=[[0,0.5],[1,0.5]];portConstraint=eastwest;rotatable=0;whiteSpace=wrap;html=1;" parent="ZqUaIY_BHLRDGgIN503c-1" vertex="1">
          <mxGeometry y="210" width="140" height="30" as="geometry" />
        </mxCell>
        <mxCell id="ZqUaIY_BHLRDGgIN503c-9" value="longitude" style="text;strokeColor=none;fillColor=none;align=left;verticalAlign=middle;spacingLeft=4;spacingRight=4;overflow=hidden;points=[[0,0.5],[1,0.5]];portConstraint=eastwest;rotatable=0;whiteSpace=wrap;html=1;" parent="ZqUaIY_BHLRDGgIN503c-1" vertex="1">
          <mxGeometry y="240" width="140" height="30" as="geometry" />
        </mxCell>
        <mxCell id="gqZS6_DJxoec4GyTkOsJ-2" value="foto" style="text;strokeColor=none;fillColor=none;align=left;verticalAlign=middle;spacingLeft=4;spacingRight=4;overflow=hidden;points=[[0,0.5],[1,0.5]];portConstraint=eastwest;rotatable=0;whiteSpace=wrap;html=1;" parent="ZqUaIY_BHLRDGgIN503c-1" vertex="1">
          <mxGeometry y="270" width="140" height="30" as="geometry" />
        </mxCell>
        <mxCell id="Xuasf2RnD_irKJMYZK4A-15" value="lama" style="text;strokeColor=none;fillColor=none;align=left;verticalAlign=middle;spacingLeft=4;spacingRight=4;overflow=hidden;points=[[0,0.5],[1,0.5]];portConstraint=eastwest;rotatable=0;whiteSpace=wrap;html=1;" vertex="1" parent="ZqUaIY_BHLRDGgIN503c-1">
          <mxGeometry y="300" width="140" height="30" as="geometry" />
        </mxCell>
        <mxCell id="ZqUaIY_BHLRDGgIN503c-27" style="edgeStyle=orthogonalEdgeStyle;rounded=0;orthogonalLoop=1;jettySize=auto;html=1;exitX=0;exitY=0.5;exitDx=0;exitDy=0;entryX=1;entryY=0.5;entryDx=0;entryDy=0;curved=1;" parent="Xuasf2RnD_irKJMYZK4A-1" source="ZqUaIY_BHLRDGgIN503c-2" target="ZqUaIY_BHLRDGgIN503c-26" edge="1">
          <mxGeometry relative="1" as="geometry" />
        </mxCell>
        <mxCell id="ZqUaIY_BHLRDGgIN503c-11" value="users" style="swimlane;fontStyle=0;childLayout=stackLayout;horizontal=1;startSize=30;horizontalStack=0;resizeParent=1;resizeParentMax=0;resizeLast=0;collapsible=1;marginBottom=0;whiteSpace=wrap;html=1;" parent="Xuasf2RnD_irKJMYZK4A-1" vertex="1">
          <mxGeometry x="520" y="40" width="140" height="270" as="geometry" />
        </mxCell>
        <mxCell id="ZqUaIY_BHLRDGgIN503c-12" value="id" style="text;strokeColor=none;fillColor=none;align=left;verticalAlign=middle;spacingLeft=4;spacingRight=4;overflow=hidden;points=[[0,0.5],[1,0.5]];portConstraint=eastwest;rotatable=0;whiteSpace=wrap;html=1;" parent="ZqUaIY_BHLRDGgIN503c-11" vertex="1">
          <mxGeometry y="30" width="140" height="30" as="geometry" />
        </mxCell>
        <mxCell id="ZqUaIY_BHLRDGgIN503c-13" value="nama" style="text;strokeColor=none;fillColor=none;align=left;verticalAlign=middle;spacingLeft=4;spacingRight=4;overflow=hidden;points=[[0,0.5],[1,0.5]];portConstraint=eastwest;rotatable=0;whiteSpace=wrap;html=1;" parent="ZqUaIY_BHLRDGgIN503c-11" vertex="1">
          <mxGeometry y="60" width="140" height="30" as="geometry" />
        </mxCell>
        <mxCell id="ZqUaIY_BHLRDGgIN503c-14" value="email" style="text;strokeColor=none;fillColor=none;align=left;verticalAlign=middle;spacingLeft=4;spacingRight=4;overflow=hidden;points=[[0,0.5],[1,0.5]];portConstraint=eastwest;rotatable=0;whiteSpace=wrap;html=1;" parent="ZqUaIY_BHLRDGgIN503c-11" vertex="1">
          <mxGeometry y="90" width="140" height="30" as="geometry" />
        </mxCell>
        <mxCell id="ZqUaIY_BHLRDGgIN503c-16" value="alamat" style="text;strokeColor=none;fillColor=none;align=left;verticalAlign=middle;spacingLeft=4;spacingRight=4;overflow=hidden;points=[[0,0.5],[1,0.5]];portConstraint=eastwest;rotatable=0;whiteSpace=wrap;html=1;" parent="ZqUaIY_BHLRDGgIN503c-11" vertex="1">
          <mxGeometry y="120" width="140" height="30" as="geometry" />
        </mxCell>
        <mxCell id="ZqUaIY_BHLRDGgIN503c-17" value="no_telp" style="text;strokeColor=none;fillColor=none;align=left;verticalAlign=middle;spacingLeft=4;spacingRight=4;overflow=hidden;points=[[0,0.5],[1,0.5]];portConstraint=eastwest;rotatable=0;whiteSpace=wrap;html=1;" parent="ZqUaIY_BHLRDGgIN503c-11" vertex="1">
          <mxGeometry y="150" width="140" height="30" as="geometry" />
        </mxCell>
        <mxCell id="Xuasf2RnD_irKJMYZK4A-16" value="role" style="text;strokeColor=none;fillColor=none;align=left;verticalAlign=middle;spacingLeft=4;spacingRight=4;overflow=hidden;points=[[0,0.5],[1,0.5]];portConstraint=eastwest;rotatable=0;whiteSpace=wrap;html=1;" vertex="1" parent="ZqUaIY_BHLRDGgIN503c-11">
          <mxGeometry y="180" width="140" height="30" as="geometry" />
        </mxCell>
        <mxCell id="ZqUaIY_BHLRDGgIN503c-18" value="password" style="text;strokeColor=none;fillColor=none;align=left;verticalAlign=middle;spacingLeft=4;spacingRight=4;overflow=hidden;points=[[0,0.5],[1,0.5]];portConstraint=eastwest;rotatable=0;whiteSpace=wrap;html=1;" parent="ZqUaIY_BHLRDGgIN503c-11" vertex="1">
          <mxGeometry y="210" width="140" height="30" as="geometry" />
        </mxCell>
        <mxCell id="Xuasf2RnD_irKJMYZK4A-17" value="remember_token" style="text;strokeColor=none;fillColor=none;align=left;verticalAlign=middle;spacingLeft=4;spacingRight=4;overflow=hidden;points=[[0,0.5],[1,0.5]];portConstraint=eastwest;rotatable=0;whiteSpace=wrap;html=1;" vertex="1" parent="ZqUaIY_BHLRDGgIN503c-11">
          <mxGeometry y="240" width="140" height="30" as="geometry" />
        </mxCell>
        <mxCell id="Xuasf2RnD_irKJMYZK4A-19" value="password_reset_tokens" style="swimlane;fontStyle=0;childLayout=stackLayout;horizontal=1;startSize=30;horizontalStack=0;resizeParent=1;resizeParentMax=0;resizeLast=0;collapsible=1;marginBottom=0;whiteSpace=wrap;html=1;" vertex="1" parent="Xuasf2RnD_irKJMYZK4A-1">
          <mxGeometry x="520" y="340" width="140" height="90" as="geometry" />
        </mxCell>
        <mxCell id="Xuasf2RnD_irKJMYZK4A-20" value="email" style="text;strokeColor=none;fillColor=none;align=left;verticalAlign=middle;spacingLeft=4;spacingRight=4;overflow=hidden;points=[[0,0.5],[1,0.5]];portConstraint=eastwest;rotatable=0;whiteSpace=wrap;html=1;" vertex="1" parent="Xuasf2RnD_irKJMYZK4A-19">
          <mxGeometry y="30" width="140" height="30" as="geometry" />
        </mxCell>
        <mxCell id="Xuasf2RnD_irKJMYZK4A-21" value="token" style="text;strokeColor=none;fillColor=none;align=left;verticalAlign=middle;spacingLeft=4;spacingRight=4;overflow=hidden;points=[[0,0.5],[1,0.5]];portConstraint=eastwest;rotatable=0;whiteSpace=wrap;html=1;" vertex="1" parent="Xuasf2RnD_irKJMYZK4A-19">
          <mxGeometry y="60" width="140" height="30" as="geometry" />
        </mxCell>
        <mxCell id="Xuasf2RnD_irKJMYZK4A-23" value="&lt;font style=&quot;font-size: 24px;&quot;&gt;DATABASE&lt;/font&gt;" style="text;html=1;strokeColor=none;fillColor=none;align=center;verticalAlign=middle;whiteSpace=wrap;rounded=0;" vertex="1" parent="Xuasf2RnD_irKJMYZK4A-1">
          <mxGeometry x="30" y="30" width="160" height="40" as="geometry" />
        </mxCell>
        <mxCell id="Xuasf2RnD_irKJMYZK4A-24" value="" style="swimlane;startSize=0;" vertex="1" parent="1">
          <mxGeometry x="50" y="560" width="780" height="470" as="geometry" />
        </mxCell>
        <mxCell id="Xuasf2RnD_irKJMYZK4A-26" value="&lt;font style=&quot;font-size: 24px;&quot;&gt;ERD&lt;/font&gt;" style="text;html=1;strokeColor=none;fillColor=none;align=center;verticalAlign=middle;whiteSpace=wrap;rounded=0;" vertex="1" parent="Xuasf2RnD_irKJMYZK4A-24">
          <mxGeometry x="30" y="30" width="160" height="40" as="geometry" />
        </mxCell>
        <mxCell id="Xuasf2RnD_irKJMYZK4A-60" style="rounded=0;orthogonalLoop=1;jettySize=auto;html=1;exitX=0.25;exitY=0;exitDx=0;exitDy=0;entryX=0.5;entryY=1;entryDx=0;entryDy=0;" edge="1" parent="Xuasf2RnD_irKJMYZK4A-24" source="Xuasf2RnD_irKJMYZK4A-27" target="Xuasf2RnD_irKJMYZK4A-36">
          <mxGeometry relative="1" as="geometry" />
        </mxCell>
        <mxCell id="Xuasf2RnD_irKJMYZK4A-61" style="rounded=0;orthogonalLoop=1;jettySize=auto;html=1;exitX=0.5;exitY=0;exitDx=0;exitDy=0;entryX=0.5;entryY=1;entryDx=0;entryDy=0;" edge="1" parent="Xuasf2RnD_irKJMYZK4A-24" source="Xuasf2RnD_irKJMYZK4A-27" target="Xuasf2RnD_irKJMYZK4A-52">
          <mxGeometry relative="1" as="geometry" />
        </mxCell>
        <mxCell id="Xuasf2RnD_irKJMYZK4A-62" style="rounded=0;orthogonalLoop=1;jettySize=auto;html=1;exitX=0.75;exitY=0;exitDx=0;exitDy=0;entryX=0.5;entryY=1;entryDx=0;entryDy=0;" edge="1" parent="Xuasf2RnD_irKJMYZK4A-24" source="Xuasf2RnD_irKJMYZK4A-27" target="Xuasf2RnD_irKJMYZK4A-53">
          <mxGeometry relative="1" as="geometry" />
        </mxCell>
        <mxCell id="Xuasf2RnD_irKJMYZK4A-63" style="rounded=0;orthogonalLoop=1;jettySize=auto;html=1;exitX=0;exitY=0.25;exitDx=0;exitDy=0;entryX=1;entryY=0.5;entryDx=0;entryDy=0;" edge="1" parent="Xuasf2RnD_irKJMYZK4A-24" source="Xuasf2RnD_irKJMYZK4A-27" target="Xuasf2RnD_irKJMYZK4A-54">
          <mxGeometry relative="1" as="geometry" />
        </mxCell>
        <mxCell id="Xuasf2RnD_irKJMYZK4A-64" style="rounded=0;orthogonalLoop=1;jettySize=auto;html=1;exitX=0;exitY=0.5;exitDx=0;exitDy=0;entryX=1;entryY=0.5;entryDx=0;entryDy=0;" edge="1" parent="Xuasf2RnD_irKJMYZK4A-24" source="Xuasf2RnD_irKJMYZK4A-27" target="Xuasf2RnD_irKJMYZK4A-55">
          <mxGeometry relative="1" as="geometry" />
        </mxCell>
        <mxCell id="Xuasf2RnD_irKJMYZK4A-65" style="rounded=0;orthogonalLoop=1;jettySize=auto;html=1;exitX=0;exitY=0.75;exitDx=0;exitDy=0;entryX=1;entryY=0;entryDx=0;entryDy=0;" edge="1" parent="Xuasf2RnD_irKJMYZK4A-24" source="Xuasf2RnD_irKJMYZK4A-27" target="Xuasf2RnD_irKJMYZK4A-56">
          <mxGeometry relative="1" as="geometry" />
        </mxCell>
        <mxCell id="Xuasf2RnD_irKJMYZK4A-66" style="rounded=0;orthogonalLoop=1;jettySize=auto;html=1;exitX=0.25;exitY=1;exitDx=0;exitDy=0;entryX=0.5;entryY=0;entryDx=0;entryDy=0;" edge="1" parent="Xuasf2RnD_irKJMYZK4A-24" source="Xuasf2RnD_irKJMYZK4A-27" target="Xuasf2RnD_irKJMYZK4A-57">
          <mxGeometry relative="1" as="geometry" />
        </mxCell>
        <mxCell id="Xuasf2RnD_irKJMYZK4A-67" style="rounded=0;orthogonalLoop=1;jettySize=auto;html=1;exitX=0.5;exitY=1;exitDx=0;exitDy=0;entryX=0.5;entryY=0;entryDx=0;entryDy=0;" edge="1" parent="Xuasf2RnD_irKJMYZK4A-24" source="Xuasf2RnD_irKJMYZK4A-27" target="Xuasf2RnD_irKJMYZK4A-58">
          <mxGeometry relative="1" as="geometry" />
        </mxCell>
        <mxCell id="Xuasf2RnD_irKJMYZK4A-68" style="rounded=0;orthogonalLoop=1;jettySize=auto;html=1;exitX=0.75;exitY=1;exitDx=0;exitDy=0;entryX=0.5;entryY=0;entryDx=0;entryDy=0;" edge="1" parent="Xuasf2RnD_irKJMYZK4A-24" source="Xuasf2RnD_irKJMYZK4A-27" target="Xuasf2RnD_irKJMYZK4A-59">
          <mxGeometry relative="1" as="geometry" />
        </mxCell>
        <mxCell id="Xuasf2RnD_irKJMYZK4A-27" value="reklames" style="rounded=0;whiteSpace=wrap;html=1;" vertex="1" parent="Xuasf2RnD_irKJMYZK4A-24">
          <mxGeometry x="160" y="205" width="120" height="60" as="geometry" />
        </mxCell>
        <mxCell id="Xuasf2RnD_irKJMYZK4A-78" style="rounded=0;orthogonalLoop=1;jettySize=auto;html=1;exitX=0.25;exitY=0;exitDx=0;exitDy=0;entryX=0.5;entryY=1;entryDx=0;entryDy=0;" edge="1" parent="Xuasf2RnD_irKJMYZK4A-24" source="Xuasf2RnD_irKJMYZK4A-28" target="Xuasf2RnD_irKJMYZK4A-69">
          <mxGeometry relative="1" as="geometry" />
        </mxCell>
        <mxCell id="Xuasf2RnD_irKJMYZK4A-80" style="rounded=0;orthogonalLoop=1;jettySize=auto;html=1;exitX=0.75;exitY=0;exitDx=0;exitDy=0;entryX=0.5;entryY=1;entryDx=0;entryDy=0;" edge="1" parent="Xuasf2RnD_irKJMYZK4A-24" source="Xuasf2RnD_irKJMYZK4A-28" target="Xuasf2RnD_irKJMYZK4A-71">
          <mxGeometry relative="1" as="geometry" />
        </mxCell>
        <mxCell id="Xuasf2RnD_irKJMYZK4A-81" style="rounded=0;orthogonalLoop=1;jettySize=auto;html=1;exitX=1;exitY=0.25;exitDx=0;exitDy=0;entryX=0;entryY=0.5;entryDx=0;entryDy=0;" edge="1" parent="Xuasf2RnD_irKJMYZK4A-24" source="Xuasf2RnD_irKJMYZK4A-28" target="Xuasf2RnD_irKJMYZK4A-72">
          <mxGeometry relative="1" as="geometry" />
        </mxCell>
        <mxCell id="Xuasf2RnD_irKJMYZK4A-82" style="rounded=0;orthogonalLoop=1;jettySize=auto;html=1;exitX=1;exitY=0.5;exitDx=0;exitDy=0;entryX=0;entryY=0;entryDx=0;entryDy=0;" edge="1" parent="Xuasf2RnD_irKJMYZK4A-24" source="Xuasf2RnD_irKJMYZK4A-28" target="Xuasf2RnD_irKJMYZK4A-73">
          <mxGeometry relative="1" as="geometry" />
        </mxCell>
        <mxCell id="Xuasf2RnD_irKJMYZK4A-83" style="rounded=0;orthogonalLoop=1;jettySize=auto;html=1;exitX=1;exitY=1;exitDx=0;exitDy=0;entryX=0;entryY=0;entryDx=0;entryDy=0;" edge="1" parent="Xuasf2RnD_irKJMYZK4A-24" source="Xuasf2RnD_irKJMYZK4A-28" target="Xuasf2RnD_irKJMYZK4A-74">
          <mxGeometry relative="1" as="geometry" />
        </mxCell>
        <mxCell id="Xuasf2RnD_irKJMYZK4A-84" style="rounded=0;orthogonalLoop=1;jettySize=auto;html=1;exitX=0.75;exitY=1;exitDx=0;exitDy=0;entryX=0.5;entryY=0;entryDx=0;entryDy=0;" edge="1" parent="Xuasf2RnD_irKJMYZK4A-24" source="Xuasf2RnD_irKJMYZK4A-28" target="Xuasf2RnD_irKJMYZK4A-75">
          <mxGeometry relative="1" as="geometry" />
        </mxCell>
        <mxCell id="Xuasf2RnD_irKJMYZK4A-28" value="penyewaans" style="rounded=0;whiteSpace=wrap;html=1;" vertex="1" parent="Xuasf2RnD_irKJMYZK4A-24">
          <mxGeometry x="480" y="205" width="120" height="60" as="geometry" />
        </mxCell>
        <mxCell id="Xuasf2RnD_irKJMYZK4A-29" value="Memiliki" style="rhombus;whiteSpace=wrap;html=1;" vertex="1" parent="Xuasf2RnD_irKJMYZK4A-24">
          <mxGeometry x="340" y="207.5" width="80" height="55" as="geometry" />
        </mxCell>
        <mxCell id="Xuasf2RnD_irKJMYZK4A-31" value="" style="endArrow=none;html=1;rounded=0;exitX=1;exitY=0.5;exitDx=0;exitDy=0;entryX=0;entryY=0.5;entryDx=0;entryDy=0;" edge="1" parent="Xuasf2RnD_irKJMYZK4A-24" source="Xuasf2RnD_irKJMYZK4A-27" target="Xuasf2RnD_irKJMYZK4A-29">
          <mxGeometry width="50" height="50" relative="1" as="geometry">
            <mxPoint x="290" y="220" as="sourcePoint" />
            <mxPoint x="340" y="170" as="targetPoint" />
          </mxGeometry>
        </mxCell>
        <mxCell id="Xuasf2RnD_irKJMYZK4A-32" value="" style="endArrow=none;html=1;rounded=0;entryX=0;entryY=0.5;entryDx=0;entryDy=0;exitX=1;exitY=0.5;exitDx=0;exitDy=0;" edge="1" parent="Xuasf2RnD_irKJMYZK4A-24" source="Xuasf2RnD_irKJMYZK4A-29" target="Xuasf2RnD_irKJMYZK4A-28">
          <mxGeometry width="50" height="50" relative="1" as="geometry">
            <mxPoint x="410" y="310" as="sourcePoint" />
            <mxPoint x="460" y="260" as="targetPoint" />
          </mxGeometry>
        </mxCell>
        <mxCell id="Xuasf2RnD_irKJMYZK4A-33" value="&lt;b&gt;1&lt;/b&gt;" style="text;html=1;strokeColor=none;fillColor=none;align=center;verticalAlign=middle;whiteSpace=wrap;rounded=0;" vertex="1" parent="Xuasf2RnD_irKJMYZK4A-24">
          <mxGeometry x="270" y="207.5" width="60" height="30" as="geometry" />
        </mxCell>
        <mxCell id="Xuasf2RnD_irKJMYZK4A-34" value="&lt;b&gt;N&lt;/b&gt;" style="text;html=1;strokeColor=none;fillColor=none;align=center;verticalAlign=middle;whiteSpace=wrap;rounded=0;" vertex="1" parent="Xuasf2RnD_irKJMYZK4A-24">
          <mxGeometry x="430" y="207.5" width="60" height="30" as="geometry" />
        </mxCell>
        <mxCell id="Xuasf2RnD_irKJMYZK4A-36" value="Tinggi" style="ellipse;whiteSpace=wrap;html=1;" vertex="1" parent="Xuasf2RnD_irKJMYZK4A-24">
          <mxGeometry x="110" y="150" width="60" height="30" as="geometry" />
        </mxCell>
        <mxCell id="Xuasf2RnD_irKJMYZK4A-52" value="Harga" style="ellipse;whiteSpace=wrap;html=1;" vertex="1" parent="Xuasf2RnD_irKJMYZK4A-24">
          <mxGeometry x="180" y="140" width="60" height="30" as="geometry" />
        </mxCell>
        <mxCell id="Xuasf2RnD_irKJMYZK4A-53" value="Nama" style="ellipse;whiteSpace=wrap;html=1;" vertex="1" parent="Xuasf2RnD_irKJMYZK4A-24">
          <mxGeometry x="250" y="150" width="60" height="30" as="geometry" />
        </mxCell>
        <mxCell id="Xuasf2RnD_irKJMYZK4A-54" value="Luas" style="ellipse;whiteSpace=wrap;html=1;" vertex="1" parent="Xuasf2RnD_irKJMYZK4A-24">
          <mxGeometry x="60" y="190" width="60" height="30" as="geometry" />
        </mxCell>
        <mxCell id="Xuasf2RnD_irKJMYZK4A-55" value="Jalan" style="ellipse;whiteSpace=wrap;html=1;" vertex="1" parent="Xuasf2RnD_irKJMYZK4A-24">
          <mxGeometry x="40" y="237.5" width="60" height="30" as="geometry" />
        </mxCell>
        <mxCell id="Xuasf2RnD_irKJMYZK4A-56" value="Latitude" style="ellipse;whiteSpace=wrap;html=1;" vertex="1" parent="Xuasf2RnD_irKJMYZK4A-24">
          <mxGeometry x="50" y="290" width="60" height="30" as="geometry" />
        </mxCell>
        <mxCell id="Xuasf2RnD_irKJMYZK4A-57" value="Longitude" style="ellipse;whiteSpace=wrap;html=1;" vertex="1" parent="Xuasf2RnD_irKJMYZK4A-24">
          <mxGeometry x="110" y="320" width="60" height="30" as="geometry" />
        </mxCell>
        <mxCell id="Xuasf2RnD_irKJMYZK4A-58" value="Foto" style="ellipse;whiteSpace=wrap;html=1;" vertex="1" parent="Xuasf2RnD_irKJMYZK4A-24">
          <mxGeometry x="180" y="320" width="60" height="30" as="geometry" />
        </mxCell>
        <mxCell id="Xuasf2RnD_irKJMYZK4A-59" value="Lama" style="ellipse;whiteSpace=wrap;html=1;" vertex="1" parent="Xuasf2RnD_irKJMYZK4A-24">
          <mxGeometry x="260" y="320" width="60" height="30" as="geometry" />
        </mxCell>
        <mxCell id="Xuasf2RnD_irKJMYZK4A-69" value="Reklame_id" style="ellipse;whiteSpace=wrap;html=1;" vertex="1" parent="Xuasf2RnD_irKJMYZK4A-24">
          <mxGeometry x="430" y="140" width="80" height="30" as="geometry" />
        </mxCell>
        <mxCell id="Xuasf2RnD_irKJMYZK4A-71" value="Perusahaan" style="ellipse;whiteSpace=wrap;html=1;" vertex="1" parent="Xuasf2RnD_irKJMYZK4A-24">
          <mxGeometry x="610" y="140" width="80" height="30" as="geometry" />
        </mxCell>
        <mxCell id="Xuasf2RnD_irKJMYZK4A-72" value="Jenis" style="ellipse;whiteSpace=wrap;html=1;" vertex="1" parent="Xuasf2RnD_irKJMYZK4A-24">
          <mxGeometry x="660" y="200" width="60" height="30" as="geometry" />
        </mxCell>
        <mxCell id="Xuasf2RnD_irKJMYZK4A-73" value="Tgl_pasang" style="ellipse;whiteSpace=wrap;html=1;" vertex="1" parent="Xuasf2RnD_irKJMYZK4A-24">
          <mxGeometry x="650" y="260" width="80" height="30" as="geometry" />
        </mxCell>
        <mxCell id="Xuasf2RnD_irKJMYZK4A-74" value="Tgl_jatuh_tempo" style="ellipse;whiteSpace=wrap;html=1;" vertex="1" parent="Xuasf2RnD_irKJMYZK4A-24">
          <mxGeometry x="610" y="320" width="120" height="30" as="geometry" />
        </mxCell>
        <mxCell id="Xuasf2RnD_irKJMYZK4A-75" value="Total_harga" style="ellipse;whiteSpace=wrap;html=1;" vertex="1" parent="Xuasf2RnD_irKJMYZK4A-24">
          <mxGeometry x="490" y="320" width="100" height="30" as="geometry" />
        </mxCell>
        <mxCell id="Xuasf2RnD_irKJMYZK4A-70" value="Nama" style="ellipse;whiteSpace=wrap;html=1;" vertex="1" parent="Xuasf2RnD_irKJMYZK4A-24">
          <mxGeometry x="540" y="130" width="60" height="30" as="geometry" />
        </mxCell>
        <mxCell id="Xuasf2RnD_irKJMYZK4A-79" style="rounded=0;orthogonalLoop=1;jettySize=auto;html=1;exitX=0.5;exitY=0;exitDx=0;exitDy=0;entryX=0.5;entryY=1;entryDx=0;entryDy=0;" edge="1" parent="Xuasf2RnD_irKJMYZK4A-24" source="Xuasf2RnD_irKJMYZK4A-28" target="Xuasf2RnD_irKJMYZK4A-70">
          <mxGeometry relative="1" as="geometry" />
        </mxCell>
      </root>
    </mxGraphModel>
  </diagram>
</mxfile>
